/* XPM */
static char *bch[] = {
/* columns rows colors chars-per-pixel */
"32 32 13 1",
"  c black",
". c blue",
"X c #008000",
"o c green",
"O c cyan",
"+ c #800000",
"@ c red",
"# c #800080",
"$ c magenta",
"% c yellow",
"& c #C0C0C0",
"* c gray100",
"= c None",
/* pixels */
"================================",
"================================",
"==  ============================",
"= %% ===========================",
"= %% ======ooooooooo============",
"== %% ===oooooooooooooo=o=======",
"== %% ==ooXXXXXXooooooooo=======",
"=== %% ooX======XXooooooo=======",
"=== %% XX====+==+=@oooooo=======",
"==== %% ===@===@===Xooooo=======",
"==== %% ==@==%===@=oooooo=======",
"==== %%% ===%=%=%==X+XXXX=======",
"=== %%%% =+===%====@=@=      ===",
"=== %% %% =%=*=*=%===  &&&&&&  =",
"== %%  %% ===*=*=%%= &&&&  &&&& ",
"== %% = %% %=****=== &&&&  &&&& ",
"= %% == %% =******=%   &&&&&&   ",
" %%% === %% =****=== ##      ## ",
" %% ==== %% %=***=%= #$#######$ ",
"=  ======  ==%=*=%== $$#$#$#$$$ ",
"=========+=@====%==@ $.$$$$$$$. ",
"==========+===%=%=== ..$.$.$... ",
"=============@==@=+= .O.......O ",
"======oooooo======== OO.O.O.OOO ",
"======ooooo=+==+=@== OoOOOOOOOo ",
"======oooooo======== ooOoOoOooo ",
"======oooooooo=====o o%ooooooo% ",
"======oooooooooooooo %%o%o%o%%% ",
"======oXXooooooooooo %@%%%%%%%@ ",
"======X==XXXooooooXX @@%@%@%@@@ ",
"============XXXXXX===  @@@@@@  =",
"=======================      ==="
};
