/* XPM */
static char *coffee[] = {
/* columns rows colors chars-per-pixel */
"32 32 6 1",
"  c black",
". c #808000",
"X c #808080",
"o c #C0C0C0",
"O c gray100",
"+ c None",
/* pixels */
"+++++++++O.OOOOO.OOO.OO+++++++++",
"++++++OOO.OOOOOO..OOO.OOOO++++++",
"++++OOOOOO.OOOOOO..OOO.OOOOO++++",
"+++OOOOOOOO.OOOOOO.OOOO.OOOOO+++",
"++OOOOOOOOOO.OOOOO.OOOO.OOOOOO++",
"++OOOOOOOOOO.OOOOO.OOO.OOOOOOO++",
"+OOOOOOOOOO.OOOO...OO.OOOOOOOOO+",
"+OOOOOOOOO.OOOO..OOO.OOOOOOOOOO+",
"+OOOOOOOO.OOOOO.OOOO.OOOOOOOOOO+",
"OOOOOOOOO.OOOOO.OOOO..OOOOOOOOOO",
"OOOOOOOOOO..OOO...OOO..OOOOOOOOO",
"OOOOOOOOOOOOOOOOOOOOOOOOOOOOOOOO",
"OOOO                      OO  OO",
"OOOO oooOOOooooXXXX   XXX O    O",
"OOOO oooOOOooooXXXX   XXX  OOO  ",
"OOOO oooOOOooooXXXX   XXX  OOO  ",
"OOOO oooOOOooooXXXX   XXX OOOO  ",
"OOOO ooooOOOoooXXX   XXXX OOOO  ",
"OOOOO oooOOOoooXXX   XXX OOOO  O",
"OOOOO ooooOOoooXXX  XXXX OOOO  O",
"OOOOOO oooOOoooXXX  XXX OOOO  OO",
"OOOOOOO oooOOooXX  XXX   OO  OOO",
"+OOOOOOO oooOooXX XXX OO    OOOO",
"+OOOOOOOO oooOoX XXX OOOOOOOOOO+",
"+OOOOOOOOO ooOoX XX OOOOOOOOOOO+",
"++O                        OOOO+",
"++O  ooooOOOoooXXX   XXXX  OOO++",
"++OOO   oooOOooXX  XXX   OOOOO++",
"+++OOOOO              OOOOOOO+++",
"++++OOOOOOOOOOOOOOOOOOOOOOOO++++",
"++++++OOOOOOOOOOOOOOOOOOOO++++++",
"+++++++++OOOOOOOOOOOOOO+++++++++"
};
