/* XPM */
static char *conses[] = {
/* columns rows colors chars-per-pixel */
"32 32 9 1",
"  c black",
". c blue",
"X c green",
"o c cyan",
"O c red",
"+ c magenta",
"@ c yellow",
"# c gray100",
"$ c None",
/* pixels */
"###############$$###############",
"#             ####             #",
"# ##### ##### #O## ##### ..... #",
"# ##### ##### #OO# ##### ..... #",
"# ##O## ##OOOOOOOO ##O## ..... #",
"# ##O## ##### #OO# ##O## ..... #",
"# ##O## ##### #O## ##O## ..... #",
"#   O         ####   O         #",
"####O###########$####O##########",
"$#OOOOO#$$$$$$$$$$$$#O#$$$$$$$$$",
"$##OOO##$$$$$$$$$$$$#O#$$$$$$$$$",
"####O##########$$$$$#O#$$$$$$$$$",
"#             #$$$$$#O#$$$$$$$$$",
"# ##### +++++ #$$$$$#O#$$$$$$$$$",
"# ##### +++++ #$$$$$#O#$$$$$$$$$",
"# ##O## +++++ #$$$$$#O#$$$$$$$$$",
"# ##O## +++++ #$$$$$#O#$$$$$$$$$",
"# ##O## +++++ #$$$$$#O#$$$$$$$$$",
"#   O         #$$$$$#O#$$$$$$$$$",
"####O##########$$$###O###$$$$$$$",
"$#OOOOO#$$$$$$$$$$#OOOOO#$$$$$$$",
"$##OOO##$$$$$$$$$$##OOO##$$$$$$$",
"####O##########$$####O##########",
"#             ####             #",
"# ooooo ##### #O## @@@@@ XXXXX #",
"# ooooo ##### #OO# @@@@@ XXXXX #",
"# ooooo ##OOOOOOOO @@@@@ XXXXX #",
"# ooooo ##### #OO# @@@@@ XXXXX #",
"# ooooo ##### #O## @@@@@ XXXXX #",
"#             ####             #",
"###############$$###############",
"$$$$$$$$$$$$$$$$$$$$$$$$$$$$$$$$"
};
