/* XPM */
static char *edwin[] = {
/* columns rows colors chars-per-pixel */
"32 32 5 1",
"  c black",
". c navy",
"X c #808080",
"o c #C0C0C0",
"O c gray100",
/* pixels */
"XXXXXXXXXXXXXXXXXXXXXXXXXXXXXXXX",
"Xooo......................oooXoX",
"XoOo..OOOO.OO.OOOO.OO.OO..oXoXoX",
"Xooo......................oXoooX",
"XOOOOOOOOOOOOOOOOOOOOOOOOOOOOOOX",
"XO O      O  OO O OOOOOOOOOOOOOX",
"XOOOOOOOOOOOOOOOOOOOOOOOOOOOOOOX",
"XOOO  O   O O   O    O   O   OOX",
"XOOOOOOOOOOOOOOOOOOOOOOOOOOOOOOX",
"XOOOOO    O   O    O O O    OOOX",
"XOOOOOOOOOOOOOOOOOOOOOOOOOOOOOOX",
"XOOOOOOO    O  O   O    OOOOOOOX",
"XOOOOOOOOOOOOOOOOOOOOOOOOOOOOOOX",
"XOOOOOOOOO    O   OO    OOOOOOOX",
"XOOOOOOOOOOOOOOOOOOOOOOOOOOOOOOX",
"XOOOOOOOOOOOOOOOOOOOOOOOOOOOOOOX",
"XOOOOOOOOOOOOOOOOOOOOOOOOOOOOOOX",
"XO        O       O   O   OOOOOX",
"XOOOOOOOOOOOOOOOOOOOOOOOOOOOOOOX",
"XOOO    OO     OO    O  OOOOOOOX",
"XOOOOOOOOOOOOOOOOOOOOOOOOOOOOOOX",
"XOOOOOOOOO     OO    O    OOOOOX",
"XOOOOOOOOOOOOOOOOOOOOOOOOOOOOOOX",
"XOOOOO      O    O    O OOOOOOOX",
"XOOOOOOOOOOOOOOOOOOOOOOOOOOOOOOX",
"XOOOOOOO     O   O   OO  OOOOOOX",
"XOOOOOOOOOOOOOOOOOOOOOOOOOOOOOOX",
"X                              X",
"X                              X",
"XOOOOOOOOOOOOOOOOOOOOOOOOOOOOOOX",
"XOOOOOOOOOOOOOOOOOOOOOOOOOOOOOOX",
"XXXXXXXXXXXXXXXXXXXXXXXXXXXXXXXX"
};
