/* XPM */
static char *envir1[] = {
/* columns rows colors chars-per-pixel */
"32 32 6 1",
"  c black",
". c red",
"X c #808080",
"o c #C0C0C0",
"O c gray100",
"+ c None",
/* pixels */
"+oooooooooooo oooooooooooooooooo",
"+oooooooooooo ooooooooooooo oooo",
"+oooooooooooo ooooooooooooo oooo",
"+oooooooooooo oooooooooooo   ooo",
"+oooooooooooo oooooooooooo   ooo",
"+oooooooooooo ooooooooooo     oo",
"+oooooooooo     ooooooooo     oo",
"+oooooooooo     ooooooooooo oooo",
"+ooooooooooo   oooooooooooo oooo",
"+ooooooooooo   oooooooooooo oooo",
"+oooooooooooo ooooooooooooo oooo",
"+oooooo...ooo ooo...ooooooo oooo",
"+oooo.......ooo.......ooooo oooo",
"+ooo...OOO...o...OOO...oooo oooo",
"+ooo..OOOOO..o..OOOOO..oooo oooo",
"+oo..OO   OO...OO   OO..ooo oooo",
"+oo..OO   OO...OO           oooo",
"+oo..OO   OO...OO   OO..oooooooo",
"+ooX..OO OO..X..OOOOO..Xoooooooo",
"+ooo...O O...X...OOO...Xoooooooo",
"+oooX... ...XoX.......Xooooooooo",
"+ooooXX. .XXoooXX...XXoooooooooo",
"+ooooooX XoooooooXXXoooooooooooo",
"+ooooooo ooooooooooooooooooooooo",
"+ooooo     ooooooooooooooooooooo",
"+ooooo     ooooooooooooooooooooo",
"+oooooo   oooooooooooooooooooooo",
"+oooooo   oooooooooooooooooooooo",
"+ooooooo ooooooooooooooooooooooo",
"+ooooooo ooooooooooooooooooooooo",
"+ooooooooooooooooooooooooooooooo",
"+ooooooooooooooooooooooooooooooo"
};
