/* XPM */
static char *graphics[] = {
/* columns rows colors chars-per-pixel */
"32 32 10 1",
"  c black",
". c navy",
"X c #008000",
"o c green",
"O c #008080",
"+ c cyan",
"@ c red",
"# c #808080",
"$ c #C0C0C0",
"% c gray100",
/* pixels */
"################################",
"#$$$......................$$$#$#",
"#$%$..%%%%.%%.%%%%.%%.%%..$#$#$#",
"#$$$......................$#$$$#",
"# O+O     @                    #",
"# O+O     @                    #",
"#  ++     @                    #",
"#  O+O    @                    #",
"#  O+O   XXX                   #",
"#   ++  Xoooo                  #",
"#   O+ XoXXXoo               XX#",
"#   O+Xoo @  oo            Xooo#",
"#    ++oX @   oo          oooXX#",
"#    O+o  @   Xo        XooX   #",
"#    O+O  @    oo      ooo     #",
"#@@@@o++@@@@@@@@oo@@@@oo@@@@@@@#",
"#   Xoo+  @      ooXooo        #",
"#   XoX+O @       oooX         #",
"#   oo ++ @                    #",
"#   oo O+ @                    #",
"#   oX  +O@               O++++#",
"#  XoX  ++@             O+++OOO#",
"#  XoX  O+@            +++     #",
"#  oo    ++           ++O      #",
"# Xoo     ++         ++        #",
"# XoX     @++O      ++         #",
"# XoX     @ +++   +++          #",
"# oo      @  O+++++O           #",
"# oo      @    OOO             #",
"#XoX      @                    #",
"#XoX      @                    #",
"################################"
};
