/* XPM */
static char *lambda-1[] = {
/* columns rows colors chars-per-pixel */
"32 32 3 1",
"  c black",
". c gray100",
"X c None",
/* pixels */
"XXXXXXXXXXXXXXXXXXXXXXXXXXXXXXXX",
"XXXX..XXXXXXXXXXXXXXXXXXXX..XXXX",
"XXX.  .XXXXXXXXXXXXXXXXXX.  .XXX",
"XX.  .XXXXX...XXXXXXXXXXXX.  .XX",
"XX.  .XXXX.   .XXXXXXXXXXX.  .XX",
"X.  .XXXXX.   .XXXXXXXXXXXX.  .X",
"X.  .XXXXXX.   .XXXXXXXXXXX.  .X",
"X.  .XXXXXX.   .XXXXXXXXXXX.  .X",
"X.  .XXXXXXX.   .XXXXXXXXXX.  .X",
"X.  .XXXXXXX.   .XXXXXXXXXX.  .X",
"X.  .XXXXXXXX.   .XXXXXXXXX.  .X",
"X.  .XXXXXXXX.   .XXXXXXXXX.  .X",
"X.  .XXXXXXXXX.   .XXXXXXXX.  .X",
"X.  .XXXXXXXXX.   .XXXXXXXX.  .X",
"X.  .XXXXXXXXX.   .  XXXXXX.  .X",
"X.  .XXXXXXXX.     . XX   X.  .X",
"X.  .XXXXXXXX.     .XXX   X.  .X",
"X.  .XXXXXXX.   .   .XX   X.  .X",
"X.  .XXXXXXX.  . .  .XX   X.  .X",
"X.  .XXXXXX.   .X.   .X   X.  .X",
"X.  .XXXXX.   .XX.   .    X.  .X",
"X.  .XXXX .  .XXXX.   .   X.  .X",
"X.  .XXX .   .XXX .   .   X.  .X",
"X.  .XX  .  .XX    .   .  X.  .X",
"X.  .X  .   .    XX.   .  X.  .X",
"X.  .  ..  .   XXXXX.   . X.  .X",
"XX.  ..     .XXXXXX.     ..  .  ",
"XX.  ..     .XXXXXX.     ..  .  ",
"XXX.  ......XXXXXXXX......  . XX",
"XXXX..XXXXXXXXXXXXXXXXXXXX..XXXX",
"XXXXXXXXXXXXXXXXXXXXXXXXXXXXXXXX",
"XXXXXXXXXXXXXXXXXXXXXXXXXXXXXXXX"
};
