/* XPM */
static char *lambda-0[] = {
/* columns rows colors chars-per-pixel */
"32 32 4 1",
"  c black",
". c yellow",
"X c #808080",
"o c None",
/* pixels */
"oooooooooooooooooooooooooooooooo",
"oooo..oooooooooooooooooooo..oooo",
"ooo.  .oooooooooooooooooo.  .ooo",
"oo.  .ooooo...oooooooooooo.  .oo",
"oo.  .oooo.   .ooooooooooo.  .oo",
"o.  .ooooo.   .oooooooooooo.  .o",
"o.  .oooooo.   .ooooooooooo.  .o",
"o.  .oooooo.   .ooooooooooo.  .o",
"o.  .ooooooo.   .oooooooooo.  .o",
"o.  .ooooooo.   .oooooooooo.  .o",
"o.  .oooooooo.   .ooooooooo.  .o",
"o.  .oooooooo.   .ooooooooo.  .o",
"o.  .ooooooooo.   .oooooooo.  .o",
"o.  .ooooooooo.   .oooooooo.  .o",
"o.  .ooooooooo.   .XXoooooo.  .o",
"o.  .oooooooo.     .XooXXXo.  .o",
"o.  .oooooooo.     .oooXXXo.  .o",
"o.  .ooooooo.   .   .ooXXXo.  .o",
"o.  .ooooooo.  .X   .ooXXXo.  .o",
"o.  .oooooo.   .o.   .oXXXo.  .o",
"o.  .ooooo.   .oo.   .XXXXo.  .o",
"o.  .ooooX.  .oooo.   .XXXo.  .o",
"o.  .oooX.   .oooX.   .XXXo.  .o",
"o.  .ooXX.  .ooXXXX.   .XXo.  .o",
"o.  .oXX.   .XXXXoo.   .XXo.  .o",
"o.  .XX..  .XXXooooo.   .Xo.  .o",
"oo.  ..     .oooooo.     ..  .XX",
"oo.  ..     .oooooo.     ..  .XX",
"ooo.  ......oooooooo......  .Xoo",
"oooo..oooooooooooooooooooo..oooo",
"oooooooooooooooooooooooooooooooo",
"oooooooooooooooooooooooooooooooo"
};
