/* XPM */
static char *lambda2[] = {
/* columns rows colors chars-per-pixel */
"32 32 6 1",
"  c black",
". c cyan",
"X c #800000",
"o c #808080",
"O c #C0C0C0",
"+ c gray100",
/* pixels */
".+.+.+.+.+.+.+.+.+.+.+.+.+.+.+.+",
"+.+.+.+.+.+.+.+.+.+.+.+.+.+.+.+.",
".+.+.+.+.XXX.+.+. .+. .   .   .+",
"+.+.+.+.XXXX+.+.+  .  +. .+. .+.",
".+.+.+.+XXXXX+.+. . . .+ +.+ +.+",
"+.+.+.+.XXXXXX+.+ +.+ +. .+. .+.",
".+.+.+.+.XXXXX.+. .+. .+ +.+ +.+",
"+.+.+.+.+XXXXXX.+ +.+ +   +. .+.",
".+.+.+.+.+XXXXXX.+.+.+.+.+.+.+.+",
"+.+.+.+.+.+XXXXX+.+.+.+.+.OooO+.",
".+.+.+.+.+.XXXXXX+.+.+.+.+oooo.+",
"+.+.+.+.+.+.XXXXXX+.+.+.+.oooo+.",
".+.+.+.+.+.+.XXXXX.+.+.+.OoooO.+",
"+.+.+.+.+.+.+XXXXXX.+.+.+OoooO+.",
".+.+.+.+.+.+.XXXXXX+.+.+.oooo+.+",
"+.+.+.+.+.+.+XXXXXXX+.+.+oooo.+.",
".+.+.+.+.+.+XXXXXXXXX+.+ooooO+.+",
"+.+.+.+.+.+.XXXXXXXXX.OoooooO.+.",
".+.+.+.+.+.XXXXXXXXXXXoooooo.+.+",
"+.+.+.+.+.XXXXXX+XXXXXXooooo+.+.",
".+.+.+.+.+XXXXX+.XXXXXXooooO.+.+",
"+.+.+.+.+XXXXXX.ooXXXXXXoooO+.+.",
".+.+.+.+.XXXXX.ooooXXXXXoooO.+.+",
"+.+.+.+.XXXXXooooooXXXXXoooO+.+.",
".+.+.+.XXXXXoooooO.+XXXXXoo+.+.+",
"+.+.+.XXXXXXoooO+.+.+XXXXXo.+.+.",
".+.+.+XXXXXooo.+.+.+.XXXXXo+.+.+",
"+.+.+XXXXXooO.+.+.+.+.XXXXX.+.+.",
".+.+.XXXXXo+.+.+.+.+.+XXXXX+.+.+",
"+.+.+XXXX.+.+.+.+.+.+.+XXXX.+.+.",
".+.+.+.+.+.+.+.+.+.+.+.+.+.+.+.+",
"+.+.+.+.+.+.+.+.+.+.+.+.+.+.+.+."
};
