/* XPM */
static char *liar2[] = {
/* columns rows colors chars-per-pixel */
"32 32 6 1",
"  c black",
". c red",
"X c yellow",
"o c #808080",
"O c #C0C0C0",
"+ c None",
/* pixels */
"++++++++++++++++++++++++++++++++",
"OOOOOOOOOOOO++++++++++++++++++++",
"OOOXXOOOOOOOo+++++++++++++++++++",
"OOX  XOOOOOOoo++++++++++++++++++",
"OOX  XOOOOOOoo++++++++++++++++++",
"OOOX  XOOOOOoo++++++++OOOOOOOOO+",
"OOOX  XOOOOOoo++++++++OO OOO OO ",
"OOOOX  XOOOOoo+++.++++O  OO O O ",
"OOOOX  XOOOOoo+++..+++OO OO O O ",
"OOOX    XOOOoo+++...++OO OO O O ",
"OOOX    XOOOo........+O   OO OO ",
"OOX  XX  XOOo........+OOOOOOOOO ",
"OOX  XX  XOOoo+++...++OO OOO OO ",
"OX  XOOX  XOoo+++..+++O O O O O ",
"OX  XOOX  XOoo+++.++++O O O O O ",
"OOXXOOOOXXOOoo++++++++O O O O O ",
"OOOOOOOOOOOOoo++++++++OO OOO OO ",
"+ooooooooooooo++++++++OOOOOOOOO ",
"++oooooooooooo++++++++OO OOO OO ",
"++++++++++++++++++++++O  OO  OO ",
"++++++++++++++++++++++OO OOO OO ",
"++++++++++++++++++++++OO OOO OO ",
"XXXXXXXXXXXXXXXXXXXX++O   O   O ",
"X XXXX   XX  XX   XXo+OOOOOOOOO ",
"X XXXXX XX XX X XX Xoo+         ",
"X XXXXX XX XX X XX Xoo++++++++++",
"X XXXXX XX    X   XXoo++++++++++",
"X XXXXX XX XX X X XXoo++++++++++",
"X    X   X XX X XX Xoo++++++++++",
"XXXXXXXXXXXXXXXXXXXXoo++++++++++",
"+ooooooooooooooooooooo++++++++++",
"++oooooooooooooooooooo++++++++++"
};
