/* XPM */
static char *liar3[] = {
/* columns rows colors chars-per-pixel */
"32 32 6 1",
"  c black",
". c #008000",
"X c green",
"o c #808000",
"O c yellow",
"+ c None",
/* pixels */
"ooooooooooooooooooooo+++++++++++",
"oooooooOOoooooooooooo ++++++++++",
"ooOOOooOoOoOOOoooOOoo  +++++++++",
"ooOooOoOoOoOooOoOooOo  +++++++++",
"ooOooOoooooOooOoOoooo  +++++++++",
"ooOOOooooooOOOoooOOoo  +++++++++",
"ooOoOooooooOoOoooooOo  +++++++++",
"ooOooOoooooOooOoOooOo  +++++++++",
"ooOooOoooooOooOooOOoo  +++++++++",
"ooooooooooooooooooooo  +++++++++",
"+                      +++++++++",
"++          X.         +++++++++",
"+++++++++++XXX.+++++++++++++++++",
"++++++++++XXXXX.++X.++++++++++++",
"+++++++++++XXXXX.XX.++++++++++++",
"++++++++++++XXXXXXX.++++++++++++",
"+++++++++++++XXXXXX.++++++++++++",
"++++++++++++++XXXXX.++++++++++++",
"+++++++++++++XXXXXX.++++++++++++",
"++++++++++++XXXXXXX.++++++++++++",
"+++++++++++++.......++++++++++++",
"++++++++++oooooooooooooooooooo++",
"++++++++++ooOooooOoooOOooooOoo +",
"++++++++++ooooooOoooOooOooOooo  ",
"++++++++++oOOoooOoooOooOoOoooo  ",
"++++++++++ooOooOoOoooOOooOOOoo  ",
"++++++++++ooOooOOOOoOooOoOooOo  ",
"++++++++++ooOooooOooOooOoOooOo  ",
"++++++++++oOOOoooOoooOOoooOOoo  ",
"++++++++++oooooooooooooooooooo  ",
"+++++++++++                     ",
"++++++++++++                    "
};
