/* XPM */
static char *liar1-0[] = {
/* columns rows colors chars-per-pixel */
"32 32 4 1",
"  c black",
". c #808000",
"X c yellow",
"o c None",
/* pixels */
"oooooooooooooooooooooooooooooooo",
"oooooooooooooooooooooooooooooooo",
"oo                             o",
"oo ..........................  o",
"oo ...X......................  o",
"oo ...X.........X.....X...X..  o",
"oo ....X........XX...X.X.XX..  o",
"oo ....X....XXXXXXX..X.X..X..  o",
"oo ...X.X.......XX...X.X..X..  o",
"oo ..X...X......X.....X..XXX.  o",
"oo ..X...X...................  o",
"oo ..........................  o",
"oo          ........           o",
"ooooooooooo ........           o",
"ooooooooooo ........  oooooooooo",
"ooooooooooo ........  oooooooooo",
"ooooooooooo ........  oooooooooo",
"ooooooooooo ........  oooooooooo",
"ooooooooooo ........  oooooooooo",
"ooooooooooo ........  oooooooooo",
"ooooooooooo ........  oooooooooo",
"ooooo......           ......oooo",
"ooooo.XXXXXXXXXXXXXXXXXXXX..oooo",
"ooooo.X XXXX   XX  XX   XX..oooo",
"ooooo.X XXXXX XX XX X XX X..oooo",
"ooooo.X XXXXX XX XX X XX X..oooo",
"ooooo.X XXXXX XX    X   XX..oooo",
"ooooo.X XXXXX XX XX X X XX..oooo",
"ooooo.X XXXXX XX XX X XX X..oooo",
"ooooo.X    X   X XX X XX X..oooo",
"ooooo.XXXXXXXXXXXXXXXXXXXX..oooo",
"ooooo.......................oooo"
};
