/* XPM */
static char *liar1-1[] = {
/* columns rows colors chars-per-pixel */
"32 32 3 1",
"  c black",
". c gray100",
"X c None",
/* pixels */
"XXXXXXXXXXXXXXXXXXXXXXXXXXXXXXXX",
"XXXXXXXXXXXXXXXXXXXXXXXXXXXXXXXX",
"XX                             X",
"XX ..........................  X",
"XX ... ......................  X",
"XX ... ......... ..... ... ..  X",
"XX .... ........  ... . .  ..  X",
"XX .... ....       .. . .. ..  X",
"XX ... . .......  ... . .. ..  X",
"XX .. ... ...... ..... ..   .  X",
"XX .. ... ...................  X",
"XX ..........................  X",
"XX          ........           X",
"XXXXXXXXXXX ........           X",
"XXXXXXXXXXX ........  XXXXXXXXXX",
"XXXXXXXXXXX ........  XXXXXXXXXX",
"XXXXXXXXXXX ........  XXXXXXXXXX",
"XXXXXXXXXXX ........  XXXXXXXXXX",
"XXXXXXXXXXX ........  XXXXXXXXXX",
"XXXXXXXXXXX ........  XXXXXXXXXX",
"XXXXXXXXXXX ........  XXXXXXXXXX",
"XXXXX                       XXXX",
"XXXXX ....................  XXXX",
"XXXXX . ....   ..  ..   ..  XXXX",
"XXXXX . ..... .. .. . .. .  XXXX",
"XXXXX . ..... .. .. . .. .  XXXX",
"XXXXX . ..... ..    .   ..  XXXX",
"XXXXX . ..... .. .. . . ..  XXXX",
"XXXXX . ..... .. .. . .. .  XXXX",
"XXXXX .    .   . .. . .. .  XXXX",
"XXXXX ....................  XXXX",
"XXXXX                       XXXX"
};
