/* XPM */
static char *mincer[] = {
/* columns rows colors chars-per-pixel */
"32 32 12 1",
"  c black",
". c blue",
"X c green",
"o c cyan",
"O c #800000",
"+ c red",
"@ c magenta",
"# c yellow",
"$ c #808080",
"% c #C0C0C0",
"& c gray100",
"* c None",
/* pixels */
"********XXX*..*+++**************",
"********XXX*..*+++**************",
"********************************",
"**********@@@****@@*************",
"*******++*@@@*XX*@@*************",
"*******++*****XX*@@*************",
"*******++*****XX****************",
"**********##*****..****** *OOO**",
"**********##*...*..****** OOOOO*",
"*******              ****  OOO *",
"******* %%&&&&$$$$   **** *   **",
"******* %%&&&&$$$$   **** ******",
"******** %%&&&$$$   ***** ******",
"******** %%&&&$$$   ***** ******",
"********* %&&&$$$  ****** ******",
"********* %%&&$$   ****** ******",
"********** %&&$$  ******* ******",
"******     $$$$$    ***** ******",
"***X.* %%%%%%%%%%%%% **** ******",
"**%%%. &&&&&&&&&&&&&& *** ******",
"*%+*%X &&&&&&&&&&&&&&      *****",
"*.#%@# $$$$$$$$$$$$$$      *****",
"%*@*+# $$$$$$$$$$$$$$ **********",
"*+X%#X               ***********",
"X&&@o+              ************",
"&.%+%****** %&$  ***************",
"@#@%X%***** %&$  ***************",
"%#%.*%******    ****************",
"%o*%@X**************************",
"%%@*****************************",
"X*%+@***************************",
"%%*%%***************************"
};
