/* XPM */
static char *shield1-2[] = {
/* columns rows colors chars-per-pixel */
"32 16 3 1",
"  c black",
". c gray100",
"X c None",
/* pixels */
" XXXXXXXXXXXXXX XXXXXXXXXXXXXX X",
"     XXXXXX    .    XXXXXX   .  ",
" ....      .........      ....  ",
" .............................  ",
" .............................  ",
" .............................  ",
" ....    .....................  ",
" .......  ....................  ",
" ......   ....................  ",
"X ....  .  ..................   ",
"XX ..  ...    ..............   X",
"XXX    ....  ..............   XX",
"XXXX .....................   XXX",
"XXXXXX .................   XXXXX",
"XXXXXXXXX  .........     XXXXXXX",
"XXXXXXXXXXXXX  .     XXXXXXXXXXX"
};
