/* XPM */
static char *shield2-1[] = {
/* columns rows colors chars-per-pixel */
"32 32 3 1",
"  c black",
". c gray100",
"X c None",
/* pixels */
" XXXXXXXXXXXXXX XXXXXXXXXXXXXX X",
"   XXXXXXXXXXX .  XXXXXXXXXXX   ",
" .    XXXXX   ...    XXXXX   .  ",
" ....      .........      ....  ",
" .............................  ",
" ..   .   ....   .   .   . ...  ",
" . .  .  .    .   .  .  . . ..  ",
" . .. . ..    . . .. . .. . ..  ",
" .. . . . ....  .. . . . . ...  ",
" .............................  ",
" .............................  ",
" .....  ....... ..... ..... ..  ",
" ....    ......   .  .  .   ..  ",
" .... .  ...... .. ..... .. ..  ",
" .......  ..... . . . . . . ..  ",
" .......  ..... .         . ..  ",
" ......   ..... ........... ..  ",
"X .....    .... .. .. . . . .   ",
"X ....  .  .... .. ..     . .   ",
"X ....  ..  ... ... .     . .  X",
"XX ..  ...  . .. .. .      .   X",
"XX ..  ....   .. . . .   . .   X",
"XXX    ....  ....  . .. . .   XX",
"XXX .............. ..... ..   XX",
"XXXX ..............  .  ..   XXX",
"XXXXX ............... ...   XXXX",
"XXXXXX .................   XXXXX",
"XXXXXXX  .............    XXXXXX",
"XXXXXXXXX  .........     XXXXXXX",
"XXXXXXXXXXX  .....     XXXXXXXXX",
"XXXXXXXXXXXXX  .     XXXXXXXXXXX",
"XXXXXXXXXXXXXXX    XXXXXXXXXXXXX"
};
