/* XPM */
static char *shield1-0[] = {
/* columns rows colors chars-per-pixel */
"32 32 5 1",
"  c black",
". c #808080",
"X c #C0C0C0",
"o c gray100",
"O c None",
/* pixels */
" OOOOOOOOOOOOOO OOOOOOOOOOOOOO O",
"   OOOOOOOOOOO o  OOOOOOOOOOO   ",
" o    OOOOO   ooo    OOOOO   o  ",
" oooo      ooooooooo      oooo  ",
" ooooooooooooooooooooooooooooo  ",
" ooooooooooooooooooooooooooooo  ",
" ooooooooooooooooooooooooooooo  ",
" ooooooooooooooooooooooooooooo  ",
" ooooooooooooooooooooooooooooo  ",
" ooooooooooooooooooooooooooooo  ",
" ooooooooooooooooooooooooooooo  ",
" ooooo Xoooooooooooooooooooooo  ",
" oooo   Xooooooooooooooooooooo  ",
" oooo o..ooooooooooooooooooooo  ",
" ooooooo Xoooooooooooooooooooo  ",
" Xoooooo XoooooooooooooooooooX  ",
" Xooooo   oooooooooooooooooooX  ",
" .ooooo   Xoooooooooooooooooo.  ",
"O oooo. o  oooooooooooooooooo   ",
"O oooo. oo Xooooooooooooooooo  O",
"OO oo .ooo  X.oooooooooooooo   O",
"OO oo  oooo ..oooooooooooooo   O",
"OOO . Xoooo  oooooooooooooo   OO",
"OOO ooooooooooooooooooooooo   OO",
"OOOO ooooooooooooooooooooo   OOO",
"OOOOO ooooooooooooooooooo   OOOO",
"OOOOOO ooooooooooooooooo   OOOOO",
"OOOOOOO  ooooooooooooo    OOOOOO",
"OOOOOOOOO  ooooooooo     OOOOOOO",
"OOOOOOOOOOO  ooooo     OOOOOOOOO",
"OOOOOOOOOOOOO  o     OOOOOOOOOOO",
"OOOOOOOOOOOOOOO    OOOOOOOOOOOOO"
};
