/* XPM */
static char *shield4-0[] = {
/* columns rows colors chars-per-pixel */
"32 32 4 1",
"  c black",
". c #800000",
"X c red",
"o c None",
/* pixels */
" oooooooooooooo oooooooooooooo o",
"   ooooooooooo X  ooooooooooo   ",
" X    ooooo   XXX    ooooo   X  ",
" XXXX      XXXXXXXXX      XXXX  ",
" XXXXXXXXXXXXXXXXXXXXXXXXXXXXX  ",
" XX   X   XXXX.. X.  X   X XXX  ",
" X X  X  X.  .X  .X  X  X X XX  ",
" X XX X XX.  .X X.XX X XX X XX  ",
" XX X X X XXXX. XX.X X X X XXX  ",
" XXXXXXXXXXXXXXXXXXXXXXXXXXXXX  ",
" XXXXXXXXXXXXXXXXXXXXXXXXXXXXX  ",
" XXXXX .XXXXXXX XXXXX XXXXX XX  ",
" XXXX   .XXXXXX   X  X  X   XX  ",
" XXXX X. XXXXXX XX XXXXX XX XX  ",
" XXXXXXX XXXXXX X.X.X.X.X.X XX  ",
" .XXXXXX  XXXXX X . . . . X XX  ",
" .XXXXX   XXXXX XXXXXXXXXXX XX  ",
"o XXXXX    XXXX XX XX X X X X   ",
"o XXXX  X  XXXX XX XX. . .X X   ",
"o .XXX  XX  XXX XXX X . . X X  o",
"oo XX  XXX  . XX XX X. . . X   o",
"oo XX  XXXX  .XX X X X. .X X  oo",
"ooo . .XXXX  XXXX  X XX.X X   oo",
"ooo XXXXXXXXXXXXXX XXXXX XX  ooo",
"oooo XXXXXXXXXXXXXX  X  XX   ooo",
"ooooo XXXXXXXXXXXXXXX XXX   oooo",
"oooooo XXXXXXXXXXXXXXXXX   ooooo",
"ooooooo  XXXXXXXXXXXXX    oooooo",
"ooooooooo  XXXXXXXXX     ooooooo",
"ooooooooooo  XXXXX     ooooooooo",
"ooooooooooooo  X     ooooooooooo",
"ooooooooooooooo    ooooooooooooo"
};
