/* XPM */
static char *shield3-0[] = {
/* columns rows colors chars-per-pixel */
"32 32 6 1",
"  c black",
". c #808000",
"X c yellow",
"o c #808080",
"O c #C0C0C0",
"+ c None",
/* pixels */
" ++++++++++++++ ++++++++++++++ +",
"   +++++++++++ X  +++++++++++   ",
" X    +++++   XXX    +++++   X  ",
" XXXO      OXXXXXXXO      OXXX  ",
" XXXXXXXXXXXXXXXXXXXXXXXXXXXXX  ",
" XX   X   XXXX.  X.  X   X XXX  ",
" X X  X  X.  .X  .X  X  X X XX  ",
" X XX X XX.  .X X.XX X XX X XX  ",
" XX X X X XXXX. XX.X X X X XXX  ",
" XXXXXXXXXXXXXXXXXXXXXXXXXXXXX  ",
" XXXXXXXXXXXXXXXXXXXXXXXXXXXXX  ",
" XXXXX .XXXXXXX XXXXX XXXXX XX  ",
" XXXX   .XXXXXX   X  X  X   XX  ",
" XXXX X. XXXXXX XX XXXXX XX XX  ",
" OXXXXXX XXXXXX X.X.X.X.X.X XX  ",
" OXXXXXX  XXXXX X . . . . X XO  ",
" OXXXXX   XXXXX XXXXXXXXXXX XO  ",
"+ XXXXX .  XXXX XX XX X X X Xo  ",
"+ XXXX  X  XXXX XX XX. . .X X  o",
"+ OXXX  XX .XXX XXX X . . X X  +",
"++ XX  XXX .. XX XX X. . . X   +",
"++ XX  XXXX  .XX X X X. .X X  ++",
"+++ . .XXXX  XXXX  X XX.X X   ++",
"+++ XXXXXXXXXXXXXX XXXXX XX  +++",
"++++ XXXXXXXXXXXXXX  X  XX   +++",
"+++++ XXXXXXXXXXXXXXX XXX   ++++",
"++++++ XXXXXXXXXXXXXXXXX   +++++",
"+++++++  XXXXXXXXXXXXX    ++++++",
"+++++++++  XXXXXXXXX     +++++++",
"+++++++++++  XXXXX     +++++++++",
"+++++++++++++  X     +++++++++++",
"+++++++++++++++    +++++++++++++"
};
