/* XPM */
static char *shield2-0[] = {
/* columns rows colors chars-per-pixel */
"32 32 5 1",
"  c black",
". c #808080",
"X c #C0C0C0",
"o c gray100",
"O c None",
/* pixels */
" OOOOOOOOOOOOOO OOOOOOOOOOOOOO O",
"   OOOOOOOOOOO o  OOOOOOOOOOO   ",
" o    OOOOO   ooo    OOOOO   o  ",
" oooo      ooooooooo      oooo  ",
" ooooooooooooooooooooooooooooo  ",
" oo.  o  .oooo.  o.  o  .o.ooo  ",
" o.o  o  o.  .o  .o  o  o.o.oo  ",
" o.oo o oo.  .o o.oo o oo.o.oo  ",
" oo.o o o.ooooX oo.o o o.o.ooo  ",
" ooooooooooooooooooooooooooooo  ",
" ooooooooooooooooooooooooooooo  ",
" ooooo Xooooooo ooooo ooooo oo  ",
" oooo   Xoooooo   o  o  o   oo  ",
" oooo o..oooooo oo ooooo oo oo  ",
" ooooooo Xooooo oXoXoXoXoXo oo  ",
" Xoooooo Xooooo o . . . . o oX  ",
" Xooooo   ooooo ooooooooooo oX  ",
" .ooooo   Xoooo oo.oo o o o o.  ",
"O oooo  o  oooo oo.oo. . .o o   ",
"O oooo  oo Xooo ooo.o . . o o  O",
"OO oo  ooo  X.oo oo.o. . . o   O",
"OO oo  oooo ..oo o.o.o. .o o   O",
"OOO . Xoooo  oooo .o.oo.o o   OO",
"OOO oooooooooooooo ooooo oo   OO",
"OOOO oooooooooooooo  o  oo   OOO",
"OOOOO ooooooooooooooo ooo   OOOO",
"OOOOOO ooooooooooooooooo   OOOOO",
"OOOOOOO  ooooooooooooo    OOOOOO",
"OOOOOOOOO  ooooooooo     OOOOOOO",
"OOOOOOOOOOO  ooooo     OOOOOOOOO",
"OOOOOOOOOOOOO  o     OOOOOOOOOOO",
"OOOOOOOOOOOOOOO    OOOOOOOOOOOOO"
};
